<svg xmlns="http://www.w3.org/2000/svg" id="Layer_1" data-name="Layer 1" viewBox="0 0 2290.57 339.93"><defs><style>.cls-1{fill:#009fe3;}</style></defs><path class="cls-1" d="M677.75,2H583.57l43.54,206.36h.95ZM878,2H784.24l49.23,206.36h.95Zm30.29,337.93h43.22L1050.39,2h-43.23Zm-224.34,0h93.24L731.24,152.51h-1ZM98.45,2,0,339.93H129.21l43.54-206.36h.95l49.7,206.36H329.89l49.22-206.36h.95L423.6,339.93H552.81L454.36,2H322.79L276.88,189.42h-.95L229.55,2Z"></path><path d="M2178,67.77V92.62h37.09q14.48,0,14.46-12.42t-15.2-12.43Zm-52.3,99V34.39H2235.9q21.51,0,31.34,4.82,7.61,3.7,12.8,12.61a38,38,0,0,1,5.19,19.47q0,24.3-20.4,30.24v.36q13.73,3.9,15,20.41l2.23,28.92a27.08,27.08,0,0,0,6.49,15.58h-57.12q-1.48-3.15-2.78-25-.93-15.78-13.54-15.76H2178V166.8Zm-158,0V34.39h140.76V66.66H2020v17.8h82.16v32.27H2020v17.8h88.46V166.8Zm-189,0V34.39h59.71l53,73.44h.56V34.39h50.07V166.8h-57.48l-55.83-74.18V166.8Zm-112.76,0v-99h-48.4V34.39h149.1V67.77h-48.4v99Zm-161-99V92.62h37.09q14.46,0,14.46-12.42t-15.2-12.43Zm-52.3,99V34.39h110.16q21.51,0,31.34,4.82,7.61,3.7,12.79,12.61a37.88,37.88,0,0,1,5.2,19.47q0,24.3-20.4,30.24v.36q13.73,3.9,15,20.41l2.22,28.92a27.09,27.09,0,0,0,6.5,15.58h-57.12q-1.49-3.15-2.79-25-.92-15.78-13.53-15.76H1505V166.8Zm-183.6,0,56.38-132.41h64.17l56.37,132.41h-55.63l-5.57-15.21h-54.52l-5.56,15.21Zm104.22-47.48-15.57-44.87h-.37l-15.58,44.87ZM1165.28,65.55V93.36H1199q9.83,0,14-3.24t4.18-10.48q0-7.61-4.18-10.85t-14-3.24ZM1113,166.8V34.39h107.94q26.88,0,39.31,12.06,11.49,11.11,11.5,34.12,0,45.06-50.44,45.06h-56V166.8Z"></path><path class="cls-1" d="M2277.17,306.65l-.09-61.8h11.48v61.8Zm-66.9.89a36.22,36.22,0,0,1-13.11-2.34,31.31,31.31,0,0,1-10.5-6.62,30.23,30.23,0,0,1-6.93-10.11,33.84,33.84,0,0,1,0-25.43,29.91,29.91,0,0,1,7-10.11,31.86,31.86,0,0,1,10.51-6.62,38.11,38.11,0,0,1,27,.27,27.36,27.36,0,0,1,10.59,7.72l-7.41,7a21.74,21.74,0,0,0-16.51-7.24,23.85,23.85,0,0,0-8.87,1.59A20.37,20.37,0,0,0,2190.45,267a24.25,24.25,0,0,0,0,17.48A20.34,20.34,0,0,0,2202,295.88a23.85,23.85,0,0,0,8.87,1.59,21.42,21.42,0,0,0,16.51-7.33l7.41,7.07a28.2,28.2,0,0,1-10.59,7.68A35.61,35.61,0,0,1,2210.27,307.54ZM2107,239.83l11.92-12.1h13l-15.36,12.1Zm6.27,67.71a46.14,46.14,0,0,1-13.86-2.07,30.4,30.4,0,0,1-10.51-5.35l4-8.91a32.1,32.1,0,0,0,9.17,4.85,33.24,33.24,0,0,0,11.22,1.94,23.9,23.9,0,0,0,7.85-1.06,9.33,9.33,0,0,0,4.42-2.87A6.5,6.5,0,0,0,2127,290a5.66,5.66,0,0,0-2-4.55,14.94,14.94,0,0,0-5.25-2.73c-2.15-.68-4.53-1.31-7.15-1.91s-5.24-1.27-7.86-2.07a32.35,32.35,0,0,1-7.15-3.09,15.43,15.43,0,0,1-5.25-5.07,14.89,14.89,0,0,1-2-8.13,16.69,16.69,0,0,1,2.69-9.22,18.49,18.49,0,0,1,8.21-6.71q5.52-2.52,14-2.52a43.66,43.66,0,0,1,11,1.42,31.51,31.51,0,0,1,9.53,4.06l-3.62,8.91a34.42,34.42,0,0,0-8.56-3.66,32.67,32.67,0,0,0-8.47-1.19,21.61,21.61,0,0,0-7.73,1.15,9.3,9.3,0,0,0-4.32,3,6.9,6.9,0,0,0-1.37,4.24,5.72,5.72,0,0,0,2,4.54,14.08,14.08,0,0,0,5.21,2.7q3.22,1,7.2,1.89c2.64.62,5.28,1.31,7.9,2.08a32.19,32.19,0,0,1,7.15,3,14.65,14.65,0,0,1,5.2,5,14.87,14.87,0,0,1,2,8,16.61,16.61,0,0,1-2.69,9.14,18.55,18.55,0,0,1-8.26,6.71Q2121.75,307.54,2113.27,307.54Zm-96.73-10a25.25,25.25,0,0,0,8.74-1.63,19.2,19.2,0,0,0,6.88-4.55,21.83,21.83,0,0,0,4.55-6.93,23.62,23.62,0,0,0,1.72-8.7,24.63,24.63,0,0,0-1.68-8.74,20.48,20.48,0,0,0-11.43-11.47,23.23,23.23,0,0,0-8.78-1.59,24.78,24.78,0,0,0-8.57,1.63,20,20,0,0,0-6.93,4.5,21.18,21.18,0,0,0-4.59,6.93,22.78,22.78,0,0,0-1.63,8.74,24.93,24.93,0,0,0,1.67,8.7,20,20,0,0,0,4.55,6.93,21.45,21.45,0,0,0,6.93,4.55A22.28,22.28,0,0,0,2016.54,297.56Zm0,9.89a34.86,34.86,0,0,1-13.12-2.3,32.16,32.16,0,0,1-10.63-6.66,29.52,29.52,0,0,1-6.93-10.11,32.49,32.49,0,0,1-2.43-12.63,30.67,30.67,0,0,1,2.38-12.62,30.36,30.36,0,0,1,7-10.06,32.06,32.06,0,0,1,10.59-6.67,37.92,37.92,0,0,1,13.21-2.43,35.89,35.89,0,0,1,13.28,2.39,31.79,31.79,0,0,1,10.51,6.67,30.1,30.1,0,0,1,6.92,10.06,31.63,31.63,0,0,1,2.47,12.66,31,31,0,0,1-2.38,12.72,29.32,29.32,0,0,1-7,10.06,32.83,32.83,0,0,1-10.55,6.62A35.15,35.15,0,0,1,2016.54,307.45Zm-145.12-.8v-61.8h9.45l27,45.12h-4.94l26.57-45.12H1939l.09,61.8h-10.85l-.09-44.75h2.3l-22.61,37.69h-5.12l-23-37.69h2.65v44.75Zm-77.57-9.09a25.25,25.25,0,0,0,8.74-1.63,19.2,19.2,0,0,0,6.88-4.55,21.83,21.83,0,0,0,4.55-6.93,23.62,23.62,0,0,0,1.72-8.7,24.63,24.63,0,0,0-1.68-8.74,20.48,20.48,0,0,0-11.43-11.47,23.23,23.23,0,0,0-8.78-1.59,24.78,24.78,0,0,0-8.57,1.63,20,20,0,0,0-6.93,4.5,21.18,21.18,0,0,0-4.59,6.93,22.78,22.78,0,0,0-1.63,8.74,24.93,24.93,0,0,0,1.67,8.7,20,20,0,0,0,4.55,6.93,21.45,21.45,0,0,0,6.93,4.55A22.28,22.28,0,0,0,1793.85,297.56Zm0,9.89a34.77,34.77,0,0,1-13.11-2.3,32.1,32.1,0,0,1-10.64-6.66,29.52,29.52,0,0,1-6.93-10.11,32.49,32.49,0,0,1-2.43-12.63,30.67,30.67,0,0,1,2.38-12.62,30.36,30.36,0,0,1,7-10.06,32,32,0,0,1,10.6-6.67,37.82,37.82,0,0,1,13.2-2.43,35.89,35.89,0,0,1,13.28,2.39,31.79,31.79,0,0,1,10.51,6.67,30.1,30.1,0,0,1,6.92,10.06,31.63,31.63,0,0,1,2.47,12.66,31,31,0,0,1-2.38,12.72,29.32,29.32,0,0,1-7,10.06,32.83,32.83,0,0,1-10.55,6.62A35.15,35.15,0,0,1,1793.85,307.45ZM1672,280.08l.09-9.71,33.9.09-.09,9.71Zm-10.24,26.57-.18-61.8H1673v61.8Zm43.34,0-.08-61.8h11.38l.09,61.8Zm-110.33.89a36.22,36.22,0,0,1-13.11-2.34,31.31,31.31,0,0,1-10.5-6.62,30.23,30.23,0,0,1-6.93-10.11,34,34,0,0,1,0-25.43,29.91,29.91,0,0,1,7-10.11,32,32,0,0,1,10.51-6.62,38.11,38.11,0,0,1,27,.27,27.36,27.36,0,0,1,10.59,7.72l-7.41,7a21.74,21.74,0,0,0-16.51-7.24,23.89,23.89,0,0,0-8.87,1.59A20.37,20.37,0,0,0,1574.9,267a24.25,24.25,0,0,0,0,17.48,20.34,20.34,0,0,0,11.57,11.39,23.89,23.89,0,0,0,8.87,1.59,21.42,21.42,0,0,0,16.51-7.33l7.41,7.07a28.2,28.2,0,0,1-10.59,7.68A35.61,35.61,0,0,1,1594.72,307.54Zm-103.71,0q-12.72,0-19.91-7.15t-7.19-20.66V244.85h11.47v34.44c0,6.36,1.37,11,4.11,13.86s6.6,4.32,11.61,4.32,8.86-1.44,11.56-4.32,4.07-7.5,4.07-13.86V244.85H1518v34.88q0,13.5-7.19,20.66T1491,307.54Zm-111.65-22.87-5.13-5.47h18.54q7.61,0,11.43-3.27a11.3,11.3,0,0,0,3.85-9.09c0-3.94-1.29-7-3.85-9.09s-6.36-3.18-11.43-3.18h-18.54l5.13-5.65Zm29,22-15.62-22.42H1405l15.71,22.42Zm-40.43,0v-61.8h25.33q12.36,0,19.38,5.84t7,16.15a21,21,0,0,1-3.18,11.7,20.22,20.22,0,0,1-9,7.5,34.5,34.5,0,0,1-14.08,2.6h-19.07l5.13-5.2v23.21Zm-80.67-26.84.09-9.26,30.63.17L1318,280Zm-10.33,26.84-.18-61.8h45l.09,9.63-33.72-.09.08,42.64,34.79.09.09,9.53Zm-60.27,0-.09-61.8H1228v61.8Zm-103.53,0-.1-61.8h9.45l38.76,47.59-4.59.09-.09-47.68h11.3l.09,61.8h-9.45l-38.75-47.58,4.68-.09v47.67Z"></path></svg>